<svg width="375" height="441" viewBox="0 0 375 441" fill="none" xmlns="http://www.w3.org/2000/svg">
<path d="M319.649 275.126C321.006 272.396 374.306 186.396 323.719 102.737C279.335 66.4646 235.725 69.9748 188.821 67.8297L158.004 66.4646L130.675 96.8863C130.675 96.8863 205.683 88.3058 241.734 168.26C261.116 210.968 236.501 271.421 219.251 296.577C162.656 379.067 109.549 410.464 84.7402 421.384C91.3301 424.114 99.8581 427.039 109.743 429.575C109.743 429.575 123.698 424.504 159.361 410.659C273.714 366.391 313.253 288.582 319.649 275.126Z" fill="#F7DF1E"/>
<path fill-rule="evenodd" clip-rule="evenodd" d="M139.557 43.5491C139.557 43.5491 164.596 0.30481 233.308 0.30481C288.434 0.30481 324.149 43.1595 343.559 69.4567C368.598 103.156 374.616 153.218 374.616 153.218L351.323 131.596C351.323 131.596 410.719 260.355 321.237 359.7C202.058 491.965 67.3503 413.463 67.3503 413.463L80.1611 405.477C102.289 391.841 122.476 375.284 140.527 356.389L0.384766 440.345V436.839C1.35528 381.322 12.4191 326.585 34.1587 275.549C34.3528 275.159 34.5469 274.77 34.5469 274.38C34.7715 273.873 34.9921 273.374 35.208 272.885L35.2134 272.873L35.2135 272.873C36.4879 269.99 37.6 267.473 38.429 265.809C49.4929 242.824 63.4683 221.591 80.5494 202.696C98.7951 182.632 122.864 163.737 169.254 145.037C169.254 145.037 168.866 119.129 151.009 108.026C90.4486 69.6515 16.4954 81.534 16.4954 81.534L30.2766 75.4954C65.0211 60.1066 101.901 49.1982 139.557 43.5491ZM319.829 274.796C319.901 274.669 319.99 274.512 320.096 274.325C325.376 265.043 372.142 182.818 323.719 102.737C295.581 79.7414 267.754 72.7352 239.202 70.1405C234.586 76.3163 227.229 80.3122 218.942 80.3122C209.803 80.3122 201.796 75.4525 197.348 68.1687C194.517 68.0698 191.675 67.9603 188.821 67.8297L158.004 66.4647L130.675 96.8863C130.675 96.8863 205.683 88.3059 241.734 168.26C261.116 210.968 236.501 271.421 219.251 296.577C162.656 379.067 109.549 410.464 84.7403 421.384C91.3301 424.114 99.8581 427.04 109.743 429.575C109.743 429.575 123.698 424.504 159.361 410.659C273.714 366.391 313.253 288.582 319.649 275.126C319.681 275.062 319.742 274.951 319.829 274.796Z" fill="black"/>
<path d="M218.941 64.1569C224.024 64.1569 228.144 60.0238 228.144 54.9253C228.144 49.8269 224.024 45.6937 218.941 45.6937C213.859 45.6937 209.739 49.8269 209.739 54.9253C209.739 60.0238 213.859 64.1569 218.941 64.1569Z" fill="white"/>
<path d="M160.212 82.638L146.257 80.3121L141.412 85.3515L130.752 97.1745C130.752 97.1745 205.757 88.6464 241.806 168.113C246.651 178.773 248.783 190.596 248.977 202.613C249.364 203.388 249.752 204.164 250.14 204.939C258.086 146.793 218.355 92.5228 160.212 82.638Z" fill="#F9BE03"/>
<path d="M85.3217 421.397C86.0969 421.786 87.066 422.175 88.0351 422.37C88.4228 422.565 88.6166 422.565 89.0042 422.76C89.7795 423.149 90.7486 423.344 91.7177 423.733C91.9115 423.928 92.2992 423.928 92.493 424.123C93.6559 424.512 95.0126 424.901 96.1756 425.486H96.3694C97.5323 425.875 98.6952 426.264 100.052 426.654C100.44 426.849 100.827 426.849 101.215 427.043C102.184 427.433 103.153 427.627 104.316 428.017C104.704 428.212 105.091 428.212 105.479 428.406C106.836 428.796 108.386 429.185 109.743 429.575C109.743 429.575 123.698 424.512 159.361 410.687C273.714 366.292 313.253 288.6 319.649 275.36C321.006 272.634 374.306 186.764 323.719 103.231C314.222 95.4425 304.725 89.601 295.228 84.9279C318.099 104.399 331.472 132.049 331.472 170.797C331.472 242.258 275.458 292.105 198.124 325.596C149.67 386.737 106.642 411.855 84.7402 421.591C84.7402 421.591 84.7402 421.591 84.934 421.591C84.934 421.202 85.1278 421.202 85.3217 421.397Z" fill="#F9BE03"/>
<path d="M113.113 234.942C113.113 234.942 121.453 223.417 124.751 220.097C140.461 202.908 156.366 192.555 178.865 186.89C183.52 185.718 189.533 184.937 200.976 184.937C217.657 186.304 221.536 209.158 206.407 215.995C197.679 219.901 188.369 222.05 178.865 222.441L167.034 222.831C148.22 223.808 130.182 227.91 113.113 234.942Z" fill="white"/>
<path d="M163.182 239.222L168.616 239.802C182.394 241.35 196.367 238.254 208.205 231.095L195.202 248.509C175.602 274.824 145.716 291.658 113.113 294.947L117.189 291.464C134.848 276.178 150.374 258.764 163.182 239.222Z" fill="white"/>
<path d="M145.323 239.558L123.438 263.578C102.716 286.426 79.4761 306.931 54.2995 324.701L31.0596 341.105L33.1899 334.661C50.0389 284.278 93.2264 247.76 145.323 239.558Z" fill="white"/>
</svg>
