<svg width="989" height="630" viewBox="0 0 989 630" fill="none" xmlns="http://www.w3.org/2000/svg">
<rect width="989" height="630" fill="#F7DF1E"/>
<path d="M816.42 322.056C808.164 322.056 802.212 317.928 802.212 305.64V290.856H796.164V280.104H802.212V258.792H815.076V280.104H825.54V290.856H815.076V306.024C815.076 310.152 816.42 311.016 818.436 311.016C820.548 311.016 822.084 309.864 822.948 309.288L827.844 318.312C825.828 319.944 822.372 322.056 816.42 322.056Z" fill="black"/>
<path d="M746.807 341.352V280.104H759.767L759.479 286.44C761.975 282.024 766.295 279.24 772.631 279.24C782.519 279.24 790.871 287.88 790.871 300.456C790.871 313.032 782.327 321.864 772.343 321.864C766.103 321.864 761.879 319.272 759.767 315.528V341.352H746.807ZM768.599 310.536C774.071 310.536 777.527 306.888 777.527 300.456C777.527 294.408 774.071 290.664 768.599 290.664C763.031 290.664 759.383 294.408 759.383 300.456C759.383 306.888 763.031 310.536 768.599 310.536Z" fill="black"/>
<path d="M729.721 273.288C725.305 273.288 721.465 269.928 721.465 265.128C721.465 260.424 725.305 257.064 729.721 257.064C734.137 257.064 737.881 260.424 737.881 265.128C737.881 269.928 734.137 273.288 729.721 273.288ZM723.193 321V280.104H736.153V321H723.193Z" fill="black"/>
<path d="M685.119 321V280.104H698.079L697.887 287.496C700.863 280.776 705.663 279.24 709.887 279.24C712.575 279.24 714.591 280.008 716.223 280.872L712.095 292.68C710.463 291.912 708.927 291.432 707.103 291.432C701.247 291.432 698.079 294.12 698.079 302.856V321H685.119Z" fill="black"/>
<path d="M660.297 321.864C647.529 321.864 637.929 313.032 637.929 300.456C637.929 288.072 647.529 279.24 660.297 279.24C668.457 279.24 673.353 282.216 677.481 287.4L668.265 294.888C666.729 292.392 663.561 290.568 660.297 290.568C654.441 290.568 651.177 294.696 651.177 300.456C651.177 306.408 654.441 310.632 660.297 310.632C664.425 310.632 666.633 308.712 668.553 306.792L677.289 314.472C673.257 318.984 668.457 321.864 660.297 321.864Z" fill="black"/>
<path d="M608.351 321.864C595.871 321.864 587.807 315.912 583.871 308.136L594.815 301.8C597.695 306.504 601.439 309.96 608.063 309.96C613.631 309.96 617.183 307.176 617.183 303.336C617.183 298.728 613.535 297.096 607.391 294.408L604.031 292.968C594.335 288.84 587.903 283.656 587.903 272.712C587.903 262.632 595.583 254.952 607.583 254.952C616.127 254.952 622.271 257.928 626.687 265.704L616.223 272.424C613.919 268.296 611.423 266.664 607.583 266.664C603.647 266.664 601.151 269.16 601.151 272.424C601.151 276.456 603.647 278.088 609.407 280.584L612.767 282.024C624.191 286.92 630.623 291.912 630.623 303.144C630.623 315.24 621.119 321.864 608.351 321.864Z" fill="black"/>
<path d="M565.028 296.712C564.836 292.008 562.532 289.896 558.212 289.896C553.316 289.896 550.724 292.008 548.9 293.64L541.7 285.96C545.54 282.216 549.86 279.24 559.46 279.24C569.924 279.24 577.892 284.904 577.892 297.768V321H565.028L565.316 315.336C562.244 320.04 558.692 321.864 553.22 321.864C545.732 321.864 538.82 318.504 538.82 309C538.82 300.264 545.444 296.712 555.524 296.712H565.028ZM565.028 304.392H556.196C552.932 304.392 551.492 305.832 551.492 308.136C551.492 310.44 553.412 311.784 557.06 311.784C562.34 311.784 565.028 309.48 565.028 306.024V304.392Z" fill="black"/>
<path d="M514.259 321.864L492.083 280.104H506.387L512.147 292.296C514.067 296.424 515.507 303.144 515.507 303.144C515.507 303.144 516.851 296.424 518.675 292.296L524.243 280.104H537.395L515.507 321.864H514.259Z" fill="black"/>
<path d="M475.403 296.712C475.211 292.008 472.907 289.896 468.587 289.896C463.691 289.896 461.099 292.008 459.275 293.64L452.075 285.96C455.915 282.216 460.235 279.24 469.835 279.24C480.299 279.24 488.267 284.904 488.267 297.768V321H475.403L475.691 315.336C472.619 320.04 469.067 321.864 463.595 321.864C456.107 321.864 449.195 318.504 449.195 309C449.195 300.264 455.819 296.712 465.899 296.712H475.403ZM475.403 304.392H466.571C463.307 304.392 461.867 305.832 461.867 308.136C461.867 310.44 463.787 311.784 467.435 311.784C472.715 311.784 475.403 309.48 475.403 306.024V304.392Z" fill="black"/>
<path d="M421.408 321.864C410.656 321.864 404.416 316.296 401.248 309.576L412.192 302.952C414.304 306.696 416.224 309.864 420.832 309.864C425.248 309.864 428.032 308.136 428.032 301.416V255.72H441.472V301.608C441.472 315.528 433.312 321.864 421.408 321.864Z" fill="black"/>
<path d="M752.562 384.102V383.242C752.562 376.362 749.466 373.696 744.22 373.696C739.232 373.696 736.05 375.846 733.814 378.856L730.116 375.502C733.212 371.288 737.856 368.622 744.65 368.622C752.562 368.622 758.582 373.266 758.582 383.156V405H752.562L752.82 399.668C750.412 403.28 746.714 405.688 741.038 405.688C733.47 405.688 727.966 402.248 727.966 394.852C727.966 387.542 733.986 384.102 741.468 384.102H752.562ZM752.562 388.66H741.898C737.34 388.66 733.814 390.294 733.814 394.594C733.814 398.636 736.824 400.786 742.414 400.786C747.918 400.786 752.562 397.776 752.562 393.132V388.66Z" fill="black"/>
<path d="M711.321 405V342.908H717.341V405H711.321Z" fill="black"/>
<path d="M670.332 389.176C671.106 395.97 675.75 400.614 683.576 400.614C688.908 400.614 692.52 398.464 694.842 395.884L698.54 399.496C695.272 403.194 690.542 405.688 683.576 405.688C671.88 405.688 664.312 397.604 664.312 387.198C664.312 376.792 672.31 368.622 682.716 368.622C694.154 368.622 701.034 377.394 700.604 389.176H670.332ZM670.418 384.618H694.584C694.068 378.512 690.198 373.696 682.716 373.696C675.922 373.696 671.364 378.082 670.418 384.618Z" fill="black"/>
<path d="M635.274 405.774C627.362 405.774 621.944 400.356 621.944 391.24V369.396H627.964V390.638C627.964 396.83 630.888 400.27 636.736 400.27C643.444 400.27 647.83 395.97 647.83 389.004V369.396H653.85V405H647.83L648.002 397.776C645.68 402.764 641.036 405.774 635.274 405.774Z" fill="black"/>
<path d="M582.814 405V404.14L603.368 374.384H585.05V369.396H613.086V370.342L592.36 400.012H612.656V405H582.814Z" fill="black"/>
<path d="M546.707 389.176C547.481 395.97 552.125 400.614 559.951 400.614C565.283 400.614 568.895 398.464 571.217 395.884L574.915 399.496C571.647 403.194 566.917 405.688 559.951 405.688C548.255 405.688 540.687 397.604 540.687 387.198C540.687 376.792 548.685 368.622 559.091 368.622C570.529 368.622 577.409 377.394 576.979 389.176H546.707ZM546.793 384.618H570.959C570.443 378.512 566.573 373.696 559.091 373.696C552.297 373.696 547.739 378.082 546.793 384.618Z" fill="black"/>
<path d="M498.579 405V369.396H504.599L504.427 376.706C506.749 371.632 511.479 368.622 517.241 368.622C525.153 368.622 530.571 374.04 530.571 383.328V405H524.551V384.016C524.551 377.738 521.627 374.126 515.693 374.126C509.071 374.126 504.599 378.34 504.599 385.392V405H498.579Z" fill="black"/>
<path d="M458.019 389.176C458.793 395.97 463.437 400.614 471.263 400.614C476.595 400.614 480.207 398.464 482.529 395.884L486.227 399.496C482.959 403.194 478.229 405.688 471.263 405.688C459.567 405.688 451.999 397.604 451.999 387.198C451.999 376.792 459.997 368.622 470.403 368.622C481.841 368.622 488.721 377.394 488.291 389.176H458.019ZM458.105 384.618H482.271C481.755 378.512 477.885 373.696 470.403 373.696C463.609 373.696 459.051 378.082 458.105 384.618Z" fill="black"/>
<path d="M427.864 405.602L403.182 346.52H409.89L425.972 386.166C427.176 389.09 428.466 394.078 428.466 394.078C428.466 394.078 429.756 389.09 430.96 386.166L446.956 346.52H453.234L428.896 405.602H427.864Z" fill="black"/>
<path d="M320.812 360.847C321.5 359.468 348.514 316.018 322.875 273.751C300.38 255.426 278.277 257.199 254.505 256.115L238.886 255.426L225.035 270.795C225.035 270.795 263.051 266.46 281.323 306.855C291.146 328.432 278.67 358.975 269.928 371.685C241.243 413.36 214.328 429.223 201.754 434.74C205.094 436.12 209.416 437.597 214.426 438.878C214.426 438.878 221.499 436.317 239.574 429.321C297.531 406.956 317.571 367.645 320.812 360.847Z" fill="#F7DF1E"/>
<path fill-rule="evenodd" clip-rule="evenodd" d="M229.536 243.848C229.536 243.848 242.227 222 277.053 222C304.992 222 323.093 243.651 332.931 256.937C345.622 273.963 348.671 299.256 348.671 299.256L336.866 288.332C336.866 288.332 366.969 353.384 321.618 403.576C261.214 470.4 192.94 430.738 192.94 430.738L199.433 426.703C210.648 419.814 220.879 411.449 230.028 401.903L159 444.32V442.548C159.492 414.5 165.099 386.845 176.118 361.061L176.118 361.06C176.216 360.864 176.314 360.667 176.314 360.47C176.429 360.212 176.542 359.957 176.652 359.709C177.298 358.252 177.862 356.98 178.282 356.14C183.889 344.527 190.973 333.8 199.63 324.253C208.877 314.117 221.076 304.57 244.588 295.122C244.588 295.122 244.391 282.033 235.341 276.424C204.647 257.036 167.165 263.039 167.165 263.039L174.15 259.988C191.76 252.213 210.451 246.702 229.536 243.848ZM320.813 360.847C320.842 360.788 320.92 360.652 321.039 360.442C323.715 355.752 347.418 314.21 322.875 273.751C308.614 262.133 294.511 258.594 280.039 257.283C277.7 260.403 273.971 262.422 269.771 262.422C265.139 262.422 261.081 259.967 258.826 256.287C257.392 256.237 255.952 256.181 254.505 256.115L238.886 255.426L225.035 270.795C225.035 270.795 263.051 266.46 281.323 306.855C291.146 328.432 278.67 358.975 269.928 371.685C241.244 413.36 214.328 429.223 201.754 434.74C205.094 436.12 209.416 437.597 214.426 438.878C214.426 438.878 221.499 436.317 239.574 429.321C297.531 406.956 317.571 367.645 320.813 360.847Z" fill="black"/>
<path d="M269.771 254.26C272.347 254.26 274.435 252.172 274.435 249.596C274.435 247.02 272.347 244.932 269.771 244.932C267.195 244.932 265.107 247.02 265.107 249.596C265.107 252.172 267.195 254.26 269.771 254.26Z" fill="white"/>
<path d="M240.005 263.597L232.933 262.422L230.477 264.968L225.074 270.941C225.074 270.941 263.089 266.632 281.359 306.781C283.815 312.167 284.896 318.14 284.994 324.211C285.19 324.603 285.387 324.995 285.583 325.386C289.611 296.009 269.474 268.591 240.005 263.597Z" fill="#F9BE03"/>
<path d="M202.048 434.747C202.441 434.943 202.932 435.14 203.424 435.238C203.62 435.337 203.718 435.337 203.915 435.435C204.308 435.632 204.799 435.73 205.29 435.927C205.388 436.025 205.585 436.025 205.683 436.124C206.272 436.321 206.96 436.517 207.549 436.812H207.648C208.237 437.009 208.826 437.206 209.514 437.403C209.711 437.501 209.907 437.501 210.103 437.599C210.595 437.796 211.086 437.895 211.675 438.091C211.872 438.19 212.068 438.19 212.265 438.288C212.952 438.485 213.738 438.682 214.426 438.878C214.426 438.878 221.499 436.321 239.574 429.336C297.531 406.906 317.571 367.654 320.812 360.965C321.5 359.588 348.514 316.204 322.875 274.001C318.062 270.066 313.248 267.115 308.435 264.754C320.027 274.591 326.805 288.561 326.805 308.137C326.805 344.241 298.415 369.425 259.22 386.346C234.662 417.236 212.854 429.926 201.754 434.845C201.754 434.845 201.754 434.845 201.852 434.845C201.852 434.648 201.95 434.648 202.048 434.747Z" fill="#F9BE03"/>
<path d="M216.135 340.545C216.135 340.545 220.362 334.722 222.033 333.044C229.995 324.36 238.056 319.13 249.46 316.268C251.819 315.676 254.866 315.281 260.666 315.281C269.12 315.972 271.086 327.518 263.419 330.972C258.995 332.946 254.276 334.031 249.46 334.229L243.463 334.426C233.928 334.92 224.785 336.992 216.135 340.545Z" fill="white"/>
<path d="M241.511 342.707L244.265 343C251.248 343.782 258.33 342.218 264.33 338.601L257.74 347.399C247.806 360.694 232.659 369.199 216.135 370.861L218.2 369.101C227.151 361.378 235.019 352.58 241.511 342.707Z" fill="white"/>
<path d="M232.459 342.877L221.367 355.012C210.865 366.556 199.086 376.915 186.326 385.894L174.547 394.181L175.627 390.925C184.166 365.47 206.055 347.021 232.459 342.877Z" fill="white"/>
</svg>
